<svg xmlns="http://www.w3.org/2000/svg" viewBox="0 0 303.02 303.02"><path d="M291.527 141.061H108.669c-5.771 0-10.449 4.678-10.449 10.449s4.678 10.449 10.449 10.449h182.857c5.771 0 10.449-4.678 10.449-10.449s-4.678-10.449-10.448-10.449z"/><circle cx="27.167" cy="151.51" r="26.122"/><path d="M108.669 36.571h182.857c5.771 0 10.449-4.678 10.449-10.449s-4.678-10.449-10.449-10.449H108.669c-5.771 0-10.449 4.678-10.449 10.449s4.679 10.449 10.449 10.449z"/><circle cx="27.167" cy="26.122" r="26.122"/><path d="M291.527 266.449H108.669c-5.771 0-10.449 4.678-10.449 10.449s4.678 10.449 10.449 10.449h182.857c5.771 0 10.449-4.678 10.449-10.449s-4.678-10.449-10.448-10.449z"/><circle cx="27.167" cy="276.898" r="26.122"/></svg>