<svg height="512" width="512" xmlns="http://www.w3.org/2000/svg"><path d="M434 0H110C85.187 0 65 20.187 65 45v36H48c-8.284 0-15 6.716-15 15s6.716 15 15 15h17v50H48c-8.284 0-15 6.716-15 15s6.716 15 15 15h17v50H48c-8.284 0-15 6.716-15 15s6.716 15 15 15h17v50H48c-8.284 0-15 6.716-15 15s6.716 15 15 15h17v50H48c-8.284 0-15 6.716-15 15s6.716 15 15 15h17v36c0 24.813 20.187 45 45 45h324c24.813 0 45-20.187 45-45V45c0-24.813-20.187-45-45-45zM95 467v-36h17c8.284 0 15-6.716 15-15s-6.716-15-15-15H95v-50h17c8.284 0 15-6.716 15-15s-6.716-15-15-15H95v-50h17c8.284 0 15-6.716 15-15s-6.716-15-15-15H95v-50h17c8.284 0 15-6.716 15-15s-6.716-15-15-15H95v-50h17c8.284 0 15-6.716 15-15s-6.716-15-15-15H95V45c0-8.271 6.729-15 15-15h51v452h-51c-8.271 0-15-6.729-15-15zm354 0c0 8.271-6.729 15-15 15H191V30h243c8.271 0 15 6.729 15 15z"/><path d="M369 81h-98c-8.284 0-15 6.716-15 15v64c0 8.284 6.716 15 15 15h98c8.284 0 15-6.716 15-15V96c0-8.284-6.716-15-15-15zm-15 64h-68v-34h68z"/></svg>