<svg xmlns="http://www.w3.org/2000/svg" viewBox="0 0 512 512"><path d="M441.547 134.164C423.294 75.192 375.879 27.387 317.806 9.402 255.965-9.749 191.494.647 140.926 37.924c-24.23 17.861-44.336 41.42-58.143 68.127-14.27 27.603-21.812 58.679-21.812 89.87 0 42.548 13.459 82.982 38.923 116.931L256.02 512l155.932-198.894.195-.254c38.106-50.809 48.823-115.939 29.4-178.688zm-53.314 160.56L256.02 463.381 123.806 294.724c-21.475-28.689-32.827-62.852-32.827-98.803 0-52.533 25.328-102.568 67.753-133.842 42.814-31.561 97.559-40.312 150.198-24.012 48.752 15.098 88.584 55.32 103.953 104.969 16.528 53.402 7.543 108.682-24.65 151.688z"/><path d="M256.02 90.895c-57.911 0-105.026 47.115-105.026 105.026 0 57.911 47.115 105.026 105.026 105.026s105.026-47.115 105.026-105.026c0-57.911-47.115-105.026-105.026-105.026zm0 180.045c-41.365 0-75.019-33.653-75.019-75.019 0-41.365 33.653-75.019 75.019-75.019s75.019 33.653 75.019 75.019c0 41.365-33.654 75.019-75.019 75.019z"/></svg>