<svg height="512" width="512" xmlns="http://www.w3.org/2000/svg"><path d="M165.265 420.075a7.5 7.5 0 007.5-7.5v-4.915c10.604-2.64 18.828-10.671 21.04-21.278 2.643-12.675-3.867-24.514-16.585-30.16-1.436-.638-2.935-1.304-4.455-1.985v-22.824c2.635 1.044 4.288 2.117 4.385 2.182a7.5 7.5 0 0010.401-1.901 7.499 7.499 0 00-1.874-10.439c-.344-.239-5.346-3.654-12.912-5.569v-4.128a7.5 7.5 0 00-15 0v3.182a37.053 37.053 0 00-3.458.622c-8.926 2.06-15.603 9.159-17.423 18.526-1.776 9.137 1.658 18.248 8.748 23.21 3.043 2.13 7.163 4.339 12.134 6.729v29.421c-3.06-.484-5.444-1.588-9.161-4.019a7.5 7.5 0 10-8.212 12.552c6.58 4.304 11.384 5.981 17.373 6.554v4.238a7.5 7.5 0 007.499 7.502zm13.855-36.755c-.67 3.215-2.811 6.454-6.355 8.414v-20.972c5.056 2.856 7.422 7.442 6.355 12.558zm-24.886-38.51c-2.723-1.906-3.116-5.533-2.625-8.06.256-1.319 1.452-5.706 6.072-6.771.029-.007.056-.009.085-.016v17.014c-1.361-.76-2.565-1.49-3.532-2.167zM427.73 0H84.27a7.5 7.5 0 00-7.5 7.5v325.29a7.5 7.5 0 0015 0V15h328.46v63.99c0 4.142 3.357 7.5 7.5 7.5s7.5-3.358 7.5-7.5V7.5a7.5 7.5 0 00-7.5-7.5z"/><path d="M427.73 106.59a7.5 7.5 0 00-7.5 7.5v370.007l-21.136-24.865a7.502 7.502 0 00-11.43.001l-28.626 33.686-28.634-33.686a7.502 7.502 0 00-11.43 0l-28.627 33.686-28.634-33.686a7.496 7.496 0 00-11.429 0l-28.635 33.686-28.625-33.686a7.5 7.5 0 00-11.429-.001l-28.635 33.686-28.625-33.686a7.5 7.5 0 00-11.429-.001L91.77 484.096V367.89a7.5 7.5 0 00-15 0V504.5a7.5 7.5 0 0013.215 4.858l28.635-33.686 28.625 33.686a7.5 7.5 0 0011.429.001l28.635-33.686 28.625 33.686a7.5 7.5 0 0011.429.001L256 475.669l28.635 33.687a7.501 7.501 0 0011.43 0l28.627-33.686 28.634 33.686a7.502 7.502 0 0011.43-.001l28.626-33.686 28.635 33.686a7.501 7.501 0 0013.215-4.858V114.09a7.503 7.503 0 00-7.502-7.5zm-80.815-74.265h-181.83a7.5 7.5 0 00-7.5 7.5V72.15a7.5 7.5 0 007.5 7.5h181.829a7.5 7.5 0 007.5-7.5V39.825a7.499 7.499 0 00-7.499-7.5zm-7.5 32.325h-166.83V47.325h166.829V64.65zM122.659 192.788h161.625c4.143 0 7.5-3.358 7.5-7.5s-3.357-7.5-7.5-7.5H122.659a7.5 7.5 0 000 15zm-7.5-47.906a7.5 7.5 0 007.5 7.5h161.625c4.143 0 7.5-3.358 7.5-7.5s-3.357-7.5-7.5-7.5H122.659a7.5 7.5 0 00-7.5 7.5z"/><path d="M122.659 233.195h161.625c4.143 0 7.5-3.358 7.5-7.5s-3.357-7.5-7.5-7.5H122.659a7.5 7.5 0 000 15zm0 40.406h161.625c4.143 0 7.5-3.358 7.5-7.5s-3.357-7.5-7.5-7.5H122.659a7.5 7.5 0 000 15zm266.682-95.813h-34.346c-4.143 0-7.5 3.358-7.5 7.5s3.357 7.5 7.5 7.5h34.346c4.143 0 7.5-3.358 7.5-7.5s-3.357-7.5-7.5-7.5zm0-40.406h-34.346c-4.143 0-7.5 3.358-7.5 7.5s3.357 7.5 7.5 7.5h34.346c4.143 0 7.5-3.358 7.5-7.5s-3.357-7.5-7.5-7.5zm0 80.813h-34.346c-4.143 0-7.5 3.358-7.5 7.5s3.357 7.5 7.5 7.5h34.346c4.143 0 7.5-3.358 7.5-7.5s-3.357-7.5-7.5-7.5zm0 40.406h-34.346c-4.143 0-7.5 3.358-7.5 7.5s3.357 7.5 7.5 7.5h34.346c4.143 0 7.5-3.358 7.5-7.5s-3.357-7.5-7.5-7.5zm0 40.407h-34.346c-4.143 0-7.5 3.358-7.5 7.5s3.357 7.5 7.5 7.5h34.346c4.143 0 7.5-3.358 7.5-7.5s-3.357-7.5-7.5-7.5z"/></svg>