<?xml version="1.0" encoding="utf-8"?><svg xmlns="http://www.w3.org/2000/svg" xmlns:xlink="http://www.w3.org/1999/xlink"><symbol viewBox="0 0 490.688 490.688" id="arrow-down" xmlns="http://www.w3.org/2000/svg"><path d="M472.328 120.529L245.213 347.665 18.098 120.529c-4.237-4.093-10.99-3.975-15.083.262-3.992 4.134-3.992 10.687 0 14.82l234.667 234.667c4.165 4.164 10.917 4.164 15.083 0l234.667-234.667c4.237-4.093 4.354-10.845.262-15.083-4.093-4.237-10.845-4.354-15.083-.262-.089.086-.176.173-.262.262l-.021.001z"/><path d="M245.213 373.415a10.663 10.663 0 01-7.552-3.115L2.994 135.633c-4.093-4.237-3.975-10.99.262-15.083 4.134-3.992 10.687-3.992 14.82 0l227.136 227.115 227.115-227.136c4.093-4.237 10.845-4.354 15.083-.262 4.237 4.093 4.354 10.845.262 15.083-.086.089-.173.176-.262.262L252.744 370.279a10.672 10.672 0 01-7.531 3.136z"/></symbol><symbol viewBox="0 0 443.52 443.52" id="arrow-left" xmlns="http://www.w3.org/2000/svg"><path d="M143.492 221.863L336.226 29.129c6.663-6.664 6.663-17.468 0-24.132-6.665-6.662-17.468-6.662-24.132 0l-204.8 204.8c-6.662 6.664-6.662 17.468 0 24.132l204.8 204.8c6.78 6.548 17.584 6.36 24.132-.42 6.387-6.614 6.387-17.099 0-23.712L143.492 221.863z"/></symbol><symbol viewBox="0 0 512 512" id="checkbox" xmlns="http://www.w3.org/2000/svg"><path d="M452 512H60c-33.086 0-60-26.914-60-60V60C0 26.914 26.914 0 60 0h392c33.086 0 60 26.914 60 60v392c0 33.086-26.914 60-60 60zM60 40c-11.027 0-20 8.973-20 20v392c0 11.027 8.973 20 20 20h392c11.027 0 20-8.973 20-20V60c0-11.027-8.973-20-20-20zm370.898 111.344l-29.8-26.688-184.965 206.567L108.78 229.176l-27.558 28.988L218.44 388.61zm0 0"/></symbol><symbol viewBox="0 0 512 512" id="delivery" xmlns="http://www.w3.org/2000/svg"><path d="M386.689 304.403c-35.587 0-64.538 28.951-64.538 64.538s28.951 64.538 64.538 64.538c35.593 0 64.538-28.951 64.538-64.538s-28.951-64.538-64.538-64.538zm0 96.807c-17.796 0-32.269-14.473-32.269-32.269s14.473-32.269 32.269-32.269 32.269 14.473 32.269 32.269c0 17.797-14.473 32.269-32.269 32.269zm-220.504-96.807c-35.587 0-64.538 28.951-64.538 64.538s28.951 64.538 64.538 64.538 64.538-28.951 64.538-64.538-28.951-64.538-64.538-64.538zm0 96.807c-17.796 0-32.269-14.473-32.269-32.269s14.473-32.269 32.269-32.269c17.791 0 32.269 14.473 32.269 32.269 0 17.797-14.473 32.269-32.269 32.269zM430.15 119.675a16.143 16.143 0 00-14.419-8.885h-84.975v32.269h75.025l43.934 87.384 28.838-14.5-48.403-96.268z"/><path d="M216.202 353.345h122.084v32.269H216.202zm-98.421 0H61.849c-8.912 0-16.134 7.223-16.134 16.134 0 8.912 7.223 16.134 16.134 16.134h55.933c8.912 0 16.134-7.223 16.134-16.134 0-8.912-7.223-16.134-16.135-16.134zm390.831-98.636l-31.736-40.874a16.112 16.112 0 00-12.741-6.239H346.891V94.655c0-8.912-7.223-16.134-16.134-16.134H61.849c-8.912 0-16.134 7.223-16.134 16.134s7.223 16.134 16.134 16.134h252.773V223.73c0 8.912 7.223 16.134 16.134 16.134h125.478l23.497 30.268v83.211h-44.639c-8.912 0-16.134 7.223-16.134 16.134 0 8.912 7.223 16.134 16.134 16.134h60.773c8.912 0 16.134-7.223 16.135-16.134V264.605c0-3.582-1.194-7.067-3.388-9.896zm-391.906 16.888H42.487c-8.912 0-16.134 7.223-16.134 16.134 0 8.912 7.223 16.134 16.134 16.134h74.218c8.912 0 16.134-7.223 16.134-16.134.001-8.911-7.222-16.134-16.133-16.134zm37.109-63.463H16.134C7.223 208.134 0 215.357 0 224.269s7.223 16.134 16.134 16.134h137.681c8.912 0 16.134-7.223 16.134-16.134s-7.222-16.135-16.134-16.135z"/><path d="M180.168 144.672H42.487c-8.912 0-16.134 7.223-16.134 16.134 0 8.912 7.223 16.134 16.134 16.134h137.681c8.912 0 16.134-7.223 16.134-16.134.001-8.911-7.222-16.134-16.134-16.134z"/></symbol><symbol viewBox="0 0 512 512" id="feedback" xmlns="http://www.w3.org/2000/svg"><path d="M426.08 70.95C380.61 30.36 320.2 8 256 8S131.39 30.36 85.92 70.95C40.19 111.78 15 166.13 15 224c0 45.95 15.8 89.66 45.74 126.64l-27.6 143.85a8 8 0 0011.41 8.68l144.58-71.6A266.9 266.9 0 00256 440c64.2 0 124.61-22.36 170.08-62.95C471.81 336.22 497 281.87 497 224s-25.19-112.22-70.92-153.05zM256 424a250.962 250.962 0 01-65.64-8.65 7.982 7.982 0 00-5.64.55L51.89 481.68l25.27-131.71a8.012 8.012 0 00-1.73-6.65C46.36 308.64 31 267.38 31 224 31 113.72 131.93 24 256 24s225 89.72 225 200-100.93 200-225 200z"/><path d="M257 248a24 24 0 1124-24 24.028 24.028 0 01-24 24zm0-32a8 8 0 108 8 8.009 8.009 0 00-8-8zm-80 32a24 24 0 1124-24 24.028 24.028 0 01-24 24zm0-32a8 8 0 108 8 8.009 8.009 0 00-8-8zm160-16a24 24 0 1024 24 24.032 24.032 0 00-24-24zm0 32a8 8 0 118-8 8.011 8.011 0 01-8 8z"/></symbol><symbol viewBox="0 0 512 512" id="filter" xmlns="http://www.w3.org/2000/svg"><path d="M420.404 0H91.596C41.09 0 0 41.09 0 91.596v328.809C0 470.91 41.09 512 91.596 512h328.809C470.91 512 512 470.91 512 420.404V91.596C512 41.09 470.91 0 420.404 0zM482 420.404C482 454.368 454.368 482 420.404 482H91.596C57.632 482 30 454.368 30 420.404V91.596C30 57.632 57.632 30 91.596 30h328.809C454.368 30 482 57.632 482 91.596z"/><path d="M432.733 112.467H204.272c-6.281-18.655-23.926-32.133-44.672-32.133s-38.391 13.478-44.672 32.133H79.267c-8.284 0-15 6.716-15 15s6.716 15 15 15h35.662c6.281 18.655 23.926 32.133 44.672 32.133s38.391-13.478 44.672-32.133h228.461c8.284 0 15-6.716 15-15s-6.716-15-15.001-15zM159.6 144.6c-9.447 0-17.133-7.686-17.133-17.133s7.686-17.133 17.133-17.133 17.133 7.686 17.133 17.133S169.047 144.6 159.6 144.6zM432.733 241h-35.662c-6.281-18.655-23.927-32.133-44.672-32.133s-38.39 13.478-44.671 32.133H79.267c-8.284 0-15 6.716-15 15s6.716 15 15 15h228.461c6.281 18.655 23.927 32.133 44.672 32.133s38.391-13.478 44.672-32.133h35.662c8.284 0 15-6.716 15-15s-6.716-15-15.001-15zM352.4 273.133c-9.447 0-17.133-7.686-17.133-17.133s7.686-17.133 17.133-17.133 17.133 7.686 17.133 17.133-7.686 17.133-17.133 17.133zm80.333 96.4H268.539c-6.281-18.655-23.926-32.133-44.672-32.133s-38.391 13.478-44.672 32.133H79.267c-8.284 0-15 6.716-15 15s6.716 15 15 15h99.928c6.281 18.655 23.926 32.133 44.672 32.133s38.391-13.478 44.672-32.133h164.195c8.284 0 15-6.716 15-15s-6.716-15-15.001-15zm-208.866 32.134c-9.447 0-17.133-7.686-17.133-17.133s7.686-17.133 17.133-17.133S241 375.086 241 384.533s-7.686 17.134-17.133 17.134z"/></symbol><symbol viewBox="0 0 512.001 512.001" id="help" xmlns="http://www.w3.org/2000/svg"><path d="M509.989 463.656L474.84 361.363c16.906-34.174 25.847-72.265 25.907-110.593.102-66.002-25.435-128.411-71.909-175.727C382.357 27.718 320.418 1.08 254.433.033c-34.571-.555-68.117 5.815-99.757 18.912-30.517 12.633-57.884 30.932-81.34 54.388-23.457 23.456-41.756 50.823-54.388 81.34C5.851 186.313-.512 219.876.035 254.43c1.045 65.985 27.684 127.924 75.009 174.406 47.224 46.383 109.472 71.912 175.332 71.911h.394c38.328-.06 76.419-9.001 110.594-25.907l102.293 35.149A36.74 36.74 0 00475.611 512c9.474 0 18.69-3.722 25.678-10.712 9.929-9.929 13.264-24.349 8.7-37.632zm-30.165 16.168c-1.007 1.007-3.163 2.535-6.304 1.457l-108.394-37.246a15.172 15.172 0 00-12.03.938c-31.327 16.573-66.727 25.363-102.374 25.417-119.55.193-218.442-96.91-220.336-216.441-.953-60.139 21.923-116.66 64.414-159.151 42.491-42.49 98.995-65.362 159.151-64.411 119.53 1.895 216.625 100.738 216.439 220.336-.056 35.648-8.845 71.048-25.417 102.373a15.178 15.178 0 00-.938 12.03l37.246 108.394c1.079 3.139-.449 5.298-1.457 6.304z"/><path d="M247.91 362.748c-7.939 0-15.545 6.981-15.178 15.178.368 8.223 6.669 15.178 15.178 15.178 7.939 0 15.545-6.981 15.178-15.178-.368-8.224-6.669-15.178-15.178-15.178zm0-235.074c-41.639 0-75.515 33.876-75.515 75.515 0 8.382 6.796 15.178 15.178 15.178s15.178-6.796 15.178-15.178c0-24.9 20.259-45.159 45.159-45.159s45.159 20.259 45.159 45.159-20.259 45.159-45.159 45.159c-8.382 0-15.178 6.796-15.178 15.178v61.905c0 8.382 6.796 15.178 15.178 15.178 8.382 0 15.178-6.795 15.178-15.179v-48.259c34.389-7.045 60.337-37.54 60.337-73.982 0-41.639-33.876-75.515-75.515-75.515z"/></symbol><symbol viewBox="0 0 303.02 303.02" id="list" xmlns="http://www.w3.org/2000/svg"><path d="M291.527 141.061H108.669c-5.771 0-10.449 4.678-10.449 10.449s4.678 10.449 10.449 10.449h182.857c5.771 0 10.449-4.678 10.449-10.449s-4.678-10.449-10.448-10.449z"/><circle cx="27.167" cy="151.51" r="26.122"/><path d="M108.669 36.571h182.857c5.771 0 10.449-4.678 10.449-10.449s-4.678-10.449-10.449-10.449H108.669c-5.771 0-10.449 4.678-10.449 10.449s4.679 10.449 10.449 10.449z"/><circle cx="27.167" cy="26.122" r="26.122"/><path d="M291.527 266.449H108.669c-5.771 0-10.449 4.678-10.449 10.449s4.678 10.449 10.449 10.449h182.857c5.771 0 10.449-4.678 10.449-10.449s-4.678-10.449-10.448-10.449z"/><circle cx="27.167" cy="276.898" r="26.122"/></symbol><symbol viewBox="0 0 409.6 409.6" id="menu" xmlns="http://www.w3.org/2000/svg"><path d="M392.533 17.067H17.067C7.641 17.067 0 24.708 0 34.133S7.641 51.2 17.067 51.2h375.467c9.426 0 17.067-7.641 17.067-17.067s-7.642-17.066-17.068-17.066zm0 170.666H17.067C7.641 187.733 0 195.374 0 204.8s7.641 17.067 17.067 17.067h375.467c9.426 0 17.067-7.641 17.067-17.067s-7.642-17.067-17.068-17.067zm0 170.667H17.067C7.641 358.4 0 366.041 0 375.467s7.641 17.067 17.067 17.067h375.467c9.426 0 17.067-7.641 17.067-17.067s-7.642-17.067-17.068-17.067z"/></symbol><symbol viewBox="0 0 512.001 512.001" id="money" xmlns="http://www.w3.org/2000/svg"><path d="M341.954 328.358c-12.131 0-22-8.542-22-19.041 0-10.5 9.869-19.042 22-19.042s22 8.542 22 19.042c0 5.522 4.478 10 10 10s10-4.478 10-10c0-18.325-13.654-33.733-32-37.915v-5.201c0-5.522-4.478-10-10-10s-10 4.478-10 10v5.201c-18.346 4.182-32 19.59-32 37.915 0 21.527 18.841 39.041 42 39.041 12.131 0 22 8.542 22 19.042s-9.869 19.042-22 19.042-22-8.542-22-19.042c0-5.522-4.478-10-10-10s-10 4.478-10 10c0 18.325 13.654 33.733 32 37.915v4.32c0 5.522 4.478 10 10 10s10-4.478 10-10v-4.32c18.346-4.182 32-19.59 32-37.915 0-21.528-18.841-39.042-42-39.042zm109.528-59.482a130.294 130.294 0 00-53.222-47.101c-4.979-2.394-10.954-.298-13.346 4.68-2.393 4.978-.298 10.952 4.68 13.345C427.505 258.024 452 296.963 452 339.001c0 17.988-4.434 35.827-12.821 51.591-2.594 4.875-.745 10.931 4.131 13.525a10 10 0 0013.525-4.131C466.756 381.342 472 360.253 472 339.001c0-24.96-7.095-49.209-20.518-70.125zm-93.809-59.874l-.673-.001c-5.522 0-10 4.477-10 10s4.478 10 10 10l.579.001h.048c5.501 0 9.973-4.446 9.999-9.953.025-5.523-4.431-10.021-9.953-10.047zm-63.266 229.2c-37.91-18.225-62.405-57.164-62.405-99.201 0-17.988 4.434-35.827 12.821-51.591 2.594-4.875.745-10.931-4.131-13.525-4.874-2.594-10.932-.745-13.525 4.131-9.921 18.645-15.165 39.733-15.165 60.985 0 24.96 7.095 49.208 20.518 70.125a130.304 130.304 0 0053.222 47.102 10.002 10.002 0 008.665-18.026zm32.595 10.799l-.579-.002c-5.548-.01-10.02 4.429-10.045 9.953-.026 5.523 4.432 10.021 9.954 10.047l.67.002c5.522 0 10-4.478 10-10s-4.478-10-10-10z"/><path d="M387.409 175.168a45.9 45.9 0 00-4.443-8.168H409c25.364 0 46-20.636 46-46s-20.636-46-46-46h-80.08A45.733 45.733 0 00337 49c0-25.364-20.636-46-46-46H46C20.636 3 0 23.636 0 49s20.636 46 46 46h80.08c-5.091 7.402-8.08 16.357-8.08 26s2.988 18.598 8.08 26H100c-25.364 0-46 20.636-46 46 0 14.567 6.814 27.566 17.415 36C60.814 237.434 54 250.433 54 265s6.814 27.566 17.415 36C60.814 309.434 54 322.433 54 337s6.814 27.566 17.415 36C60.814 381.434 54 394.433 54 409c0 25.364 20.636 46 46 46h117.85c31.046 33.207 75.212 54.001 124.151 54.001 93.738 0 170-76.262 170-170 0-78.017-52.83-143.918-124.592-163.833zM409 95c14.337 0 26 11.664 26 26s-11.663 26-26 26H164c-14.337 0-26-11.664-26-26s11.663-26 26-26h245zM46 75c-14.337 0-26-11.664-26-26s11.663-26 26-26h245c14.337 0 26 11.664 26 26s-11.663 26-26 26H46zm54 92h245c4.028 0 7.885.936 11.345 2.612-4.73-.397-9.512-.611-14.344-.611-46.945 0-89.505 19.129-120.299 49.999H100c-14.336 0-26-11.664-26-26s11.664-26 26-26zm0 72h104.615c-11.352 15.553-20.129 33.095-25.703 52H100c-14.337 0-26-11.663-26-26 0-14.336 11.663-26 26-26zm0 72h74.32a170.4 170.4 0 00-2.319 28.001c0 8.146.589 16.156 1.702 23.999H100c-14.337 0-26-11.663-26-26s11.663-26 26-26zm0 124c-14.337 0-26-11.663-26-26s11.663-26 26-26h77.786a169.33 169.33 0 0023.993 52H100zm242.001 54.001c-82.71 0-150-67.29-150-150s67.29-150 150-150 150 67.29 150 150-67.29 150-150 150z"/></symbol><symbol viewBox="0 0 512 512" id="notebook" xmlns="http://www.w3.org/2000/svg"><path d="M434 0H110C85.187 0 65 20.187 65 45v36H48c-8.284 0-15 6.716-15 15s6.716 15 15 15h17v50H48c-8.284 0-15 6.716-15 15s6.716 15 15 15h17v50H48c-8.284 0-15 6.716-15 15s6.716 15 15 15h17v50H48c-8.284 0-15 6.716-15 15s6.716 15 15 15h17v50H48c-8.284 0-15 6.716-15 15s6.716 15 15 15h17v36c0 24.813 20.187 45 45 45h324c24.813 0 45-20.187 45-45V45c0-24.813-20.187-45-45-45zM95 467v-36h17c8.284 0 15-6.716 15-15s-6.716-15-15-15H95v-50h17c8.284 0 15-6.716 15-15s-6.716-15-15-15H95v-50h17c8.284 0 15-6.716 15-15s-6.716-15-15-15H95v-50h17c8.284 0 15-6.716 15-15s-6.716-15-15-15H95v-50h17c8.284 0 15-6.716 15-15s-6.716-15-15-15H95V45c0-8.271 6.729-15 15-15h51v452h-51c-8.271 0-15-6.729-15-15zm354 0c0 8.271-6.729 15-15 15H191V30h243c8.271 0 15 6.729 15 15z"/><path d="M369 81h-98c-8.284 0-15 6.716-15 15v64c0 8.284 6.716 15 15 15h98c8.284 0 15-6.716 15-15V96c0-8.284-6.716-15-15-15zm-15 64h-68v-34h68z"/></symbol><symbol viewBox="0 0 512 512" id="pin" xmlns="http://www.w3.org/2000/svg"><path d="M441.547 134.164C423.294 75.192 375.879 27.387 317.806 9.402 255.965-9.749 191.494.647 140.926 37.924c-24.23 17.861-44.336 41.42-58.143 68.127-14.27 27.603-21.812 58.679-21.812 89.87 0 42.548 13.459 82.982 38.923 116.931L256.02 512l155.932-198.894.195-.254c38.106-50.809 48.823-115.939 29.4-178.688zm-53.314 160.56L256.02 463.381 123.806 294.724c-21.475-28.689-32.827-62.852-32.827-98.803 0-52.533 25.328-102.568 67.753-133.842 42.814-31.561 97.559-40.312 150.198-24.012 48.752 15.098 88.584 55.32 103.953 104.969 16.528 53.402 7.543 108.682-24.65 151.688z"/><path d="M256.02 90.895c-57.911 0-105.026 47.115-105.026 105.026 0 57.911 47.115 105.026 105.026 105.026s105.026-47.115 105.026-105.026c0-57.911-47.115-105.026-105.026-105.026zm0 180.045c-41.365 0-75.019-33.653-75.019-75.019 0-41.365 33.653-75.019 75.019-75.019s75.019 33.653 75.019 75.019c0 41.365-33.654 75.019-75.019 75.019z"/></symbol><symbol viewBox="0 0 512 512" id="receipt" xmlns="http://www.w3.org/2000/svg"><path d="M165.265 420.075a7.5 7.5 0 007.5-7.5v-4.915c10.604-2.64 18.828-10.671 21.04-21.278 2.643-12.675-3.867-24.514-16.585-30.16-1.436-.638-2.935-1.304-4.455-1.985v-22.824c2.635 1.044 4.288 2.117 4.385 2.182a7.5 7.5 0 0010.401-1.901 7.499 7.499 0 00-1.874-10.439c-.344-.239-5.346-3.654-12.912-5.569v-4.128a7.5 7.5 0 00-15 0v3.182a37.053 37.053 0 00-3.458.622c-8.926 2.06-15.603 9.159-17.423 18.526-1.776 9.137 1.658 18.248 8.748 23.21 3.043 2.13 7.163 4.339 12.134 6.729v29.421c-3.06-.484-5.444-1.588-9.161-4.019a7.5 7.5 0 10-8.212 12.552c6.58 4.304 11.384 5.981 17.373 6.554v4.238a7.5 7.5 0 007.499 7.502zm13.855-36.755c-.67 3.215-2.811 6.454-6.355 8.414v-20.972c5.056 2.856 7.422 7.442 6.355 12.558zm-24.886-38.51c-2.723-1.906-3.116-5.533-2.625-8.06.256-1.319 1.452-5.706 6.072-6.771.029-.007.056-.009.085-.016v17.014c-1.361-.76-2.565-1.49-3.532-2.167zM427.73 0H84.27a7.5 7.5 0 00-7.5 7.5v325.29a7.5 7.5 0 0015 0V15h328.46v63.99c0 4.142 3.357 7.5 7.5 7.5s7.5-3.358 7.5-7.5V7.5a7.5 7.5 0 00-7.5-7.5z"/><path d="M427.73 106.59a7.5 7.5 0 00-7.5 7.5v370.007l-21.136-24.865a7.502 7.502 0 00-11.43.001l-28.626 33.686-28.634-33.686a7.502 7.502 0 00-11.43 0l-28.627 33.686-28.634-33.686a7.496 7.496 0 00-11.429 0l-28.635 33.686-28.625-33.686a7.5 7.5 0 00-11.429-.001l-28.635 33.686-28.625-33.686a7.5 7.5 0 00-11.429-.001L91.77 484.096V367.89a7.5 7.5 0 00-15 0V504.5a7.5 7.5 0 0013.215 4.858l28.635-33.686 28.625 33.686a7.5 7.5 0 0011.429.001l28.635-33.686 28.625 33.686a7.5 7.5 0 0011.429.001L256 475.669l28.635 33.687a7.501 7.501 0 0011.43 0l28.627-33.686 28.634 33.686a7.502 7.502 0 0011.43-.001l28.626-33.686 28.635 33.686a7.501 7.501 0 0013.215-4.858V114.09a7.503 7.503 0 00-7.502-7.5zm-80.815-74.265h-181.83a7.5 7.5 0 00-7.5 7.5V72.15a7.5 7.5 0 007.5 7.5h181.829a7.5 7.5 0 007.5-7.5V39.825a7.499 7.499 0 00-7.499-7.5zm-7.5 32.325h-166.83V47.325h166.829V64.65zM122.659 192.788h161.625c4.143 0 7.5-3.358 7.5-7.5s-3.357-7.5-7.5-7.5H122.659a7.5 7.5 0 000 15zm-7.5-47.906a7.5 7.5 0 007.5 7.5h161.625c4.143 0 7.5-3.358 7.5-7.5s-3.357-7.5-7.5-7.5H122.659a7.5 7.5 0 00-7.5 7.5z"/><path d="M122.659 233.195h161.625c4.143 0 7.5-3.358 7.5-7.5s-3.357-7.5-7.5-7.5H122.659a7.5 7.5 0 000 15zm0 40.406h161.625c4.143 0 7.5-3.358 7.5-7.5s-3.357-7.5-7.5-7.5H122.659a7.5 7.5 0 000 15zm266.682-95.813h-34.346c-4.143 0-7.5 3.358-7.5 7.5s3.357 7.5 7.5 7.5h34.346c4.143 0 7.5-3.358 7.5-7.5s-3.357-7.5-7.5-7.5zm0-40.406h-34.346c-4.143 0-7.5 3.358-7.5 7.5s3.357 7.5 7.5 7.5h34.346c4.143 0 7.5-3.358 7.5-7.5s-3.357-7.5-7.5-7.5zm0 80.813h-34.346c-4.143 0-7.5 3.358-7.5 7.5s3.357 7.5 7.5 7.5h34.346c4.143 0 7.5-3.358 7.5-7.5s-3.357-7.5-7.5-7.5zm0 40.406h-34.346c-4.143 0-7.5 3.358-7.5 7.5s3.357 7.5 7.5 7.5h34.346c4.143 0 7.5-3.358 7.5-7.5s-3.357-7.5-7.5-7.5zm0 40.407h-34.346c-4.143 0-7.5 3.358-7.5 7.5s3.357 7.5 7.5 7.5h34.346c4.143 0 7.5-3.358 7.5-7.5s-3.357-7.5-7.5-7.5z"/></symbol><symbol viewBox="0 0 512.005 512.005" id="search" xmlns="http://www.w3.org/2000/svg"><path d="M505.749 475.587l-145.6-145.6c28.203-34.837 45.184-79.104 45.184-127.317C405.333 90.926 314.41.003 202.666.003S0 90.925 0 202.669s90.923 202.667 202.667 202.667c48.213 0 92.48-16.981 127.317-45.184l145.6 145.6c4.16 4.16 9.621 6.251 15.083 6.251s10.923-2.091 15.083-6.251c8.341-8.341 8.341-21.824-.001-30.165zM202.667 362.669c-88.235 0-160-71.765-160-160s71.765-160 160-160 160 71.765 160 160-71.766 160-160 160z"/></symbol><symbol viewBox="0 0 416 416" id="statistics" xmlns="http://www.w3.org/2000/svg"><path d="M120.038 279h19v137h-19zm79-23h19v160h-19zm-157 109h18v51h-18zm235.001-167h19v218h-19zm79-52h18v270h-18zm43.9-143.3c-2-1.7-4.5-2.7-7.2-2.7h-68.5c-5.5 0-10 4.5-10 10s4.5 10 10 10l44.2-.1-108.1 108.2-37.9-38.1c-1.9-1.9-4.4-3-7.1-3.1-2.7.1-5.2 1.2-7.1 3.1l-192 192.2c-4 3.8-4.1 10.2-.3 14.2s10.2 4.1 14.2.3c.1-.1.2-.2.3-.2l185-185 37.9 37.8c1.9 1.8 4.4 2.8 7.1 2.8 2.6 0 5.2-1 7.1-2.8L382.838 34l-.1 44.1c0 5.5 4.4 9.9 9.9 9.9h.1c5.5.1 9.9-4.3 10-9.8v-.1l.1-68.4c.001-2.6-1.099-5.1-2.899-7z"/></symbol></svg>