<svg xmlns="http://www.w3.org/2000/svg" viewBox="0 0 416 416"><path d="M120.038 279h19v137h-19zm79-23h19v160h-19zm-157 109h18v51h-18zm235.001-167h19v218h-19zm79-52h18v270h-18zm43.9-143.3c-2-1.7-4.5-2.7-7.2-2.7h-68.5c-5.5 0-10 4.5-10 10s4.5 10 10 10l44.2-.1-108.1 108.2-37.9-38.1c-1.9-1.9-4.4-3-7.1-3.1-2.7.1-5.2 1.2-7.1 3.1l-192 192.2c-4 3.8-4.1 10.2-.3 14.2s10.2 4.1 14.2.3c.1-.1.2-.2.3-.2l185-185 37.9 37.8c1.9 1.8 4.4 2.8 7.1 2.8 2.6 0 5.2-1 7.1-2.8L382.838 34l-.1 44.1c0 5.5 4.4 9.9 9.9 9.9h.1c5.5.1 9.9-4.3 10-9.8v-.1l.1-68.4c.001-2.6-1.099-5.1-2.899-7z"/></svg>